<svg width="22" height="22" viewBox="0 0 22 22" fill="none" xmlns="http://www.w3.org/2000/svg">
<g clip-path="url(#clip0_21_315)">
<path d="M17.545 11.8617C17.5817 11.5867 17.6 11.3025 17.6 11C17.6 10.7067 17.5817 10.4133 17.5359 10.1383L19.3967 8.69001C19.5617 8.56168 19.6075 8.31418 19.5067 8.13085L17.7467 5.08751C17.6367 4.88585 17.4075 4.82168 17.2059 4.88585L15.015 5.76585C14.5567 5.41751 14.0709 5.12418 13.53 4.90418L13.2 2.57585C13.1634 2.35585 12.98 2.20001 12.76 2.20001H9.24002C9.02002 2.20001 8.84585 2.35585 8.80919 2.57585L8.47919 4.90418C7.93835 5.12418 7.44335 5.42668 6.99419 5.76585L4.80335 4.88585C4.60169 4.81251 4.37252 4.88585 4.26252 5.08751L2.51169 8.13085C2.40169 8.32335 2.43835 8.56168 2.62169 8.69001L4.48252 10.1383C4.43669 10.4133 4.40002 10.7158 4.40002 11C4.40002 11.2842 4.41835 11.5867 4.46419 11.8617L2.60335 13.31C2.43835 13.4383 2.39252 13.6858 2.49335 13.8692L4.25335 16.9125C4.36335 17.1142 4.59252 17.1783 4.79419 17.1142L6.98502 16.2342C7.44335 16.5825 7.92919 16.8758 8.47002 17.0958L8.80002 19.4242C8.84585 19.6442 9.02002 19.8 9.24002 19.8H12.76C12.98 19.8 13.1634 19.6442 13.1909 19.4242L13.5209 17.0958C14.0617 16.8758 14.5567 16.5825 15.0059 16.2342L17.1967 17.1142C17.3984 17.1875 17.6275 17.1142 17.7375 16.9125L19.4975 13.8692C19.6075 13.6675 19.5617 13.4383 19.3875 13.31L17.545 11.8617ZM11 14.3C9.18502 14.3 7.70002 12.815 7.70002 11C7.70002 9.18501 9.18502 7.70001 11 7.70001C12.815 7.70001 14.3 9.18501 14.3 11C14.3 12.815 12.815 14.3 11 14.3Z" fill="black"/>
</g>
<defs>
<clipPath id="clip0_21_315">
<rect width="22" height="22" fill="white"/>
</clipPath>
</defs>
</svg>
