<svg width="22" height="22" viewBox="0 0 22 22" fill="none" xmlns="http://www.w3.org/2000/svg">
<g clip-path="url(#clip0_35_548)">
<path d="M15.5833 17.6183H4.58333V6.41665H11V4.58331H4.58333C3.575 4.58331 2.75 5.40831 2.75 6.41665V17.4166C2.75 18.425 3.575 19.25 4.58333 19.25H15.5833C16.5917 19.25 17.4167 18.425 17.4167 17.4166V11H15.5833V17.6183Z" fill="#1875DE"/>
<path d="M17.4167 1.83331H15.5833V4.58331H12.8333C12.8425 4.59248 12.8333 6.41665 12.8333 6.41665H15.5833V9.15748C15.5925 9.16665 17.4167 9.15748 17.4167 9.15748V6.41665H20.1667V4.58331H17.4167V1.83331Z" fill="#1875DE"/>
<path d="M13.75 8.25H6.41666V10.0833H13.75V8.25Z" fill="#1875DE"/>
<path d="M6.41666 11V12.8333H13.75V11H11H6.41666Z" fill="#1875DE"/>
<path d="M13.75 13.75H6.41666V15.5833H13.75V13.75Z" fill="#1875DE"/>
</g>
<defs>
<clipPath id="clip0_35_548">
<rect width="22" height="22" fill="white"/>
</clipPath>
</defs>
</svg>
