<svg width="90" height="32" viewBox="0 0 90 32" fill="none" xmlns="http://www.w3.org/2000/svg">
<path d="M3.25568 0.363636V12H1.14773V0.363636H3.25568ZM15.4209 0.363636V12H13.5459L8.0629 4.07386H7.96631V12H5.85835V0.363636H7.74472L13.222 8.29545H13.3243V0.363636H15.4209ZM19.5945 0.363636L22.623 9.52273H22.7423L25.765 0.363636H28.0832L23.9809 12H21.3786L17.282 0.363636H19.5945ZM39.7086 6.18182C39.7086 7.43561 39.4737 8.50947 39.004 9.40341C38.5381 10.2936 37.9018 10.9754 37.0949 11.4489C36.2919 11.9223 35.3809 12.1591 34.362 12.1591C33.343 12.1591 32.4302 11.9223 31.6234 11.4489C30.8203 10.9716 30.184 10.2879 29.7143 9.39773C29.2484 8.50379 29.0154 7.43182 29.0154 6.18182C29.0154 4.92803 29.2484 3.85606 29.7143 2.96591C30.184 2.07197 30.8203 1.38826 31.6234 0.914772C32.4302 0.441287 33.343 0.204545 34.362 0.204545C35.3809 0.204545 36.2919 0.441287 37.0949 0.914772C37.9018 1.38826 38.5381 2.07197 39.004 2.96591C39.4737 3.85606 39.7086 4.92803 39.7086 6.18182ZM37.5893 6.18182C37.5893 5.29924 37.451 4.55492 37.1745 3.94886C36.9018 3.33902 36.523 2.87879 36.0381 2.56818C35.5533 2.25379 34.9946 2.09659 34.362 2.09659C33.7294 2.09659 33.1707 2.25379 32.6859 2.56818C32.201 2.87879 31.8203 3.33902 31.5438 3.94886C31.2711 4.55492 31.1347 5.29924 31.1347 6.18182C31.1347 7.06439 31.2711 7.81061 31.5438 8.42045C31.8203 9.02652 32.201 9.48674 32.6859 9.80114C33.1707 10.1117 33.7294 10.267 34.362 10.267C34.9946 10.267 35.5533 10.1117 36.0381 9.80114C36.523 9.48674 36.9018 9.02652 37.1745 8.42045C37.451 7.81061 37.5893 7.06439 37.5893 6.18182ZM44.1294 0.363636V12H42.0215V0.363636H44.1294ZM56.6923 4.28977H54.5673C54.5067 3.94129 54.395 3.63258 54.2321 3.36364C54.0692 3.09091 53.8666 2.85985 53.6241 2.67045C53.3817 2.48106 53.1052 2.33901 52.7946 2.24432C52.4878 2.14583 52.1563 2.09659 51.8003 2.09659C51.1677 2.09659 50.6071 2.25568 50.1185 2.57386C49.6298 2.88826 49.2473 3.35038 48.9707 3.96023C48.6942 4.56629 48.556 5.30682 48.556 6.18182C48.556 7.07197 48.6942 7.82197 48.9707 8.43182C49.251 9.03788 49.6336 9.49621 50.1185 9.80682C50.6071 10.1136 51.1658 10.267 51.7946 10.267C52.1431 10.267 52.4688 10.2216 52.7719 10.1307C53.0787 10.036 53.3533 9.89773 53.5957 9.71591C53.8419 9.53409 54.0484 9.31061 54.2151 9.04545C54.3855 8.7803 54.5029 8.47727 54.5673 8.13636L56.6923 8.14773C56.6128 8.70076 56.4404 9.2197 56.1753 9.70455C55.9139 10.1894 55.5711 10.6174 55.1469 10.9886C54.7226 11.3561 54.2264 11.6439 53.6582 11.8523C53.0901 12.0568 52.4594 12.1591 51.7662 12.1591C50.7435 12.1591 49.8306 11.9223 49.0276 11.4489C48.2245 10.9754 47.5919 10.2917 47.1298 9.39773C46.6677 8.50379 46.4366 7.43182 46.4366 6.18182C46.4366 4.92803 46.6696 3.85606 47.1355 2.96591C47.6014 2.07197 48.2359 1.38826 49.0389 0.914772C49.8419 0.441287 50.751 0.204545 51.7662 0.204545C52.4139 0.204545 53.0162 0.295454 53.573 0.477272C54.1298 0.659091 54.626 0.926136 55.0616 1.27841C55.4973 1.62689 55.8552 2.05492 56.1355 2.5625C56.4196 3.06629 56.6052 3.64205 56.6923 4.28977ZM58.9427 12V0.363636H66.5109V2.13068H61.0507V5.28977H66.1189V7.05682H61.0507V10.233H66.5564V12H58.9427ZM1.14773 19.3636H3.72727L7.18182 27.7955H7.31818L10.7727 19.3636H13.3523V31H11.3295V23.0057H11.2216L8.00568 30.9659H6.49432L3.27841 22.9886H3.17045V31H1.14773V19.3636ZM19.542 31H17.292L21.3886 19.3636H23.9909L28.0932 31H25.8432L22.7352 21.75H22.6443L19.542 31ZM19.6159 26.4375H25.7523V28.1307H19.6159V26.4375ZM32.0259 31V19.3636H34.1338V24.7102H34.2759L38.8156 19.3636H41.3895L36.8895 24.5852L41.4293 31H38.8952L35.4236 26.0114L34.1338 27.5341V31H32.0259ZM45.254 31V19.3636H52.8222V21.1307H47.3619V24.2898H52.4301V26.0568H47.3619V29.233H52.8676V31H45.254ZM57.3727 31V19.3636H61.7364C62.6303 19.3636 63.3803 19.5189 63.9864 19.8295C64.5962 20.1402 65.0564 20.5758 65.367 21.1364C65.6814 21.6932 65.8386 22.3428 65.8386 23.0852C65.8386 23.8314 65.6795 24.4792 65.3614 25.0284C65.047 25.5739 64.583 25.9962 63.9693 26.2955C63.3557 26.5909 62.6019 26.7386 61.708 26.7386H58.6V24.9886H61.4239C61.9466 24.9886 62.3746 24.9167 62.708 24.7727C63.0413 24.625 63.2875 24.411 63.4466 24.1307C63.6095 23.8466 63.6909 23.4981 63.6909 23.0852C63.6909 22.6723 63.6095 22.3201 63.4466 22.0284C63.2837 21.733 63.0356 21.5095 62.7023 21.358C62.3689 21.2027 61.939 21.125 61.4125 21.125H59.4807V31H57.3727ZM63.3841 25.7273L66.2648 31H63.9125L61.083 25.7273H63.3841Z" fill="black"/>
<path d="M69.6712 26V19.8909H71.8487C72.324 19.8909 72.7178 19.9774 73.03 20.1504C73.3422 20.3234 73.5759 20.5601 73.731 20.8604C73.8861 21.1587 73.9636 21.4947 73.9636 21.8686C73.9636 22.2445 73.8851 22.5825 73.728 22.8828C73.5729 23.1811 73.3382 23.4178 73.024 23.5928C72.7118 23.7658 72.319 23.8523 71.8457 23.8523H70.3483V23.0707H71.7622C72.0625 23.0707 72.3061 23.019 72.493 22.9156C72.68 22.8102 72.8172 22.667 72.9047 22.4861C72.9922 22.3051 73.0359 22.0993 73.0359 21.8686C73.0359 21.6379 72.9922 21.4331 72.9047 21.2541C72.8172 21.0751 72.679 20.9349 72.4901 20.8335C72.3031 20.7321 72.0565 20.6814 71.7503 20.6814H70.5929V26H69.6712ZM75.2122 26V19.8909H77.3898C77.8631 19.8909 78.2558 19.9724 78.568 20.1355C78.8822 20.2986 79.1169 20.5243 79.272 20.8126C79.4271 21.099 79.5047 21.4301 79.5047 21.806C79.5047 22.1798 79.4261 22.5089 79.269 22.7933C79.1139 23.0757 78.8793 23.2955 78.5651 23.4526C78.2528 23.6097 77.8601 23.6882 77.3868 23.6882H75.7372V22.8947H77.3033C77.6016 22.8947 77.8442 22.852 78.0311 22.7665C78.22 22.681 78.3582 22.5567 78.4457 22.3936C78.5332 22.2305 78.577 22.0347 78.577 21.806C78.577 21.5753 78.5322 21.3754 78.4428 21.2064C78.3553 21.0374 78.217 20.9081 78.0281 20.8186C77.8412 20.7271 77.5956 20.6814 77.2913 20.6814H76.1339V26H75.2122ZM78.228 23.2437L79.7374 26H78.6874L77.2078 23.2437H78.228ZM86.101 22.9455C86.101 23.5977 85.9816 24.1585 85.743 24.6278C85.5044 25.0952 85.1772 25.4551 84.7616 25.7077C84.348 25.9582 83.8777 26.0835 83.3507 26.0835C82.8217 26.0835 82.3494 25.9582 81.9338 25.7077C81.5201 25.4551 81.194 25.0942 80.9554 24.6249C80.7167 24.1555 80.5974 23.5957 80.5974 22.9455C80.5974 22.2932 80.7167 21.7334 80.9554 21.2661C81.194 20.7967 81.5201 20.4368 81.9338 20.1862C82.3494 19.9337 82.8217 19.8074 83.3507 19.8074C83.8777 19.8074 84.348 19.9337 84.7616 20.1862C85.1772 20.4368 85.5044 20.7967 85.743 21.2661C85.9816 21.7334 86.101 22.2932 86.101 22.9455ZM85.1882 22.9455C85.1882 22.4483 85.1076 22.0297 84.9465 21.6896C84.7875 21.3476 84.5687 21.0891 84.2903 20.9141C84.0139 20.7371 83.7007 20.6486 83.3507 20.6486C82.9987 20.6486 82.6845 20.7371 82.4081 20.9141C82.1316 21.0891 81.9129 21.3476 81.7518 21.6896C81.5927 22.0297 81.5132 22.4483 81.5132 22.9455C81.5132 23.4426 81.5927 23.8622 81.7518 24.2043C81.9129 24.5443 82.1316 24.8028 82.4081 24.9798C82.6845 25.1548 82.9987 25.2423 83.3507 25.2423C83.7007 25.2423 84.0139 25.1548 84.2903 24.9798C84.5687 24.8028 84.7875 24.5443 84.9465 24.2043C85.1076 23.8622 85.1882 23.4426 85.1882 22.9455Z" fill="black"/>
</svg>
